<?xml version="1.0" standalone="no"?>
<!DOCTYPE svg PUBLIC "-//W3C//DTD SVG 20010904//EN"
 "http://www.w3.org/TR/2001/REC-SVG-20010904/DTD/svg10.dtd">
<svg version="1.0" xmlns="http://www.w3.org/2000/svg"
 width="320.000000pt" height="320.000000pt" viewBox="0 0 320.000000 320.000000"
 preserveAspectRatio="xMidYMid meet">

<g transform="translate(0.000000,320.000000) scale(0.100000,-0.100000)"
fill="#000000" stroke="none">
<path d="M0 1600 l0 -1600 571 2 571 3 19 24 c17 21 19 41 19 197 l0 174 -142
-1 c-232 -2 -319 38 -414 186 -29 44 -71 110 -95 147 -24 38 -70 91 -105 120
-92 78 -94 102 -9 100 82 -1 138 -38 269 -177 65 -69 136 -135 157 -146 78
-39 239 -37 301 5 23 15 47 50 78 112 25 50 51 99 59 108 8 9 12 18 10 21 -3
2 -49 14 -104 26 -202 43 -307 87 -418 174 -168 132 -265 384 -254 660 6 148
34 244 107 364 l50 82 -6 147 c-5 118 -3 161 10 216 9 38 21 76 27 83 17 19
91 16 162 -8 34 -11 121 -49 193 -83 l131 -63 109 20 c159 29 463 29 627 -1
l119 -21 126 63 c191 95 308 128 345 98 41 -35 67 -244 44 -361 l-15 -74 31
-51 c66 -112 115 -227 127 -298 19 -109 8 -325 -20 -413 -37 -115 -100 -232
-162 -300 -108 -117 -221 -174 -452 -226 -71 -16 -132 -32 -135 -34 -2 -3 5
-15 17 -28 35 -37 72 -130 82 -208 5 -41 10 -139 10 -219 1 -80 5 -198 9 -264
6 -107 9 -120 30 -137 22 -18 51 -19 572 -19 l549 0 0 1600 0 1600 -1600 0
-1600 0 0 -1600z"/>
</g>
</svg>
