<?xml version="1.0" standalone="no"?>
<!DOCTYPE svg PUBLIC "-//W3C//DTD SVG 20010904//EN"
 "http://www.w3.org/TR/2001/REC-SVG-20010904/DTD/svg10.dtd">
<svg version="1.0" xmlns="http://www.w3.org/2000/svg"
 width="320.000000pt" height="320.000000pt" viewBox="0 0 320.000000 320.000000"
 preserveAspectRatio="xMidYMid meet">

<g transform="translate(0.000000,320.000000) scale(0.100000,-0.100000)"
fill="#000000" stroke="none">
<path d="M0 1600 l0 -1600 1600 0 1600 0 0 1600 0 1600 -1600 0 -1600 0 0
-1600z m2625 866 c42 -42 40 -72 -19 -361 -89 -436 -294 -1401 -317 -1488 -11
-43 -56 -77 -101 -77 -31 0 -102 47 -370 243 -246 179 -232 171 -260 156 -12
-7 -84 -72 -159 -146 -129 -125 -139 -133 -176 -133 -27 0 -46 6 -57 19 -10
11 -66 167 -125 347 l-107 328 -195 58 c-338 103 -382 119 -397 150 -19 41 -2
62 81 102 70 34 1066 423 1717 672 179 69 341 131 360 139 54 22 97 19 125 -9z"/>
<path d="M2054 2049 c-252 -150 -971 -600 -1007 -630 l-32 -27 18 -70 c20 -78
108 -363 133 -429 9 -24 19 -43 24 -43 14 0 19 28 39 199 10 88 20 163 22 164
31 25 673 596 783 696 81 75 166 151 187 169 42 36 52 72 21 72 -11 0 -95 -45
-188 -101z"/>
</g>
</svg>
