<?xml version="1.0" standalone="no"?>
<!DOCTYPE svg PUBLIC "-//W3C//DTD SVG 20010904//EN"
 "http://www.w3.org/TR/2001/REC-SVG-20010904/DTD/svg10.dtd">
<svg version="1.0" xmlns="http://www.w3.org/2000/svg"
 width="320.000000pt" height="320.000000pt" viewBox="0 0 320.000000 320.000000"
 preserveAspectRatio="xMidYMid meet">

<g transform="translate(0.000000,320.000000) scale(0.100000,-0.100000)"
fill="#000000" stroke="none">
<path d="M0 1600 l0 -1600 1600 0 1600 0 0 1600 0 1600 -1600 0 -1600 0 0
-1600z m1719 609 c17 -6 37 -21 43 -33 7 -12 15 -114 20 -250 10 -249 19 -299
56 -304 59 -9 174 142 288 376 67 137 79 155 109 168 25 10 81 14 215 14 266
0 283 -12 215 -146 -19 -38 -62 -107 -94 -154 -200 -285 -221 -320 -221 -360
0 -36 8 -48 88 -132 224 -237 252 -275 252 -337 0 -64 -8 -66 -229 -66 -108 0
-208 3 -223 8 -31 8 -102 65 -231 186 -81 75 -91 82 -125 79 -28 -2 -41 -10
-59 -37 -12 -18 -25 -50 -28 -70 -23 -137 -25 -142 -63 -158 -46 -19 -213 -12
-312 13 -291 73 -537 340 -802 867 -59 119 -118 254 -118 272 0 2 14 12 31 21
27 13 60 15 201 12 l170 -3 24 -30 c13 -16 48 -74 76 -128 142 -264 196 -346
254 -383 32 -21 70 -11 88 24 32 63 27 384 -8 436 -8 13 -33 32 -56 42 -22 10
-40 21 -40 25 0 7 44 39 70 51 26 11 374 9 409 -3z"/>
</g>
</svg>
